<?xml version="1.0" encoding="UTF-8"?>
<svg xmlns="http://www.w3.org/2000/svg" xmlns:xlink="http://www.w3.org/1999/xlink" width="32px" height="32px" viewBox="0 0 32 32" version="1.1">
<g id="surface1">
<path style=" stroke:none;fill-rule:nonzero;fill:rgb(100%,88.235294%,0%);fill-opacity:1;" d="M 19.074219 6.511719 L 2.839844 6.550781 C 2.679688 6.550781 2.574219 6.445312 2.574219 6.289062 L 2.566406 4.539062 C 2.566406 4.378906 2.675781 4.273438 2.835938 4.273438 L 19.070312 4.285156 Z M 19.074219 6.511719 "/>
<path style=" stroke:none;fill-rule:nonzero;fill:rgb(100%,88.235294%,0%);fill-opacity:1;" d="M 20.214844 2.773438 C 20.855469 2.773438 21.363281 3.273438 21.339844 3.882812 L 21.347656 6.90625 C 21.347656 7.539062 20.839844 8.042969 20.226562 8.019531 C 19.585938 8.019531 19.078125 7.519531 19.101562 6.910156 L 19.09375 3.890625 C 19.066406 3.28125 19.574219 2.777344 20.214844 2.773438 "/>
<path style=" stroke:none;fill-rule:nonzero;fill:rgb(99.215686%,80%,0%);fill-opacity:1;" d="M 22.5 9.152344 C 21.859375 9.15625 21.351562 8.652344 21.375 8.042969 L 21.363281 2.796875 C 21.359375 2.160156 21.867188 1.65625 22.480469 1.683594 C 23.121094 1.679688 23.628906 2.183594 23.605469 2.792969 L 23.617188 8.039062 C 23.621094 8.621094 23.113281 9.125 22.5 9.152344 "/>
<path style=" stroke:none;fill-rule:nonzero;fill:rgb(100%,88.235294%,0%);fill-opacity:1;" d="M 24.746094 9.890625 C 24.105469 9.890625 23.59375 9.390625 23.621094 8.78125 L 23.601562 1.625 C 23.601562 0.992188 24.109375 0.488281 24.722656 0.511719 C 25.363281 0.507812 25.871094 1.011719 25.847656 1.621094 L 25.890625 8.746094 C 25.890625 9.382812 25.386719 9.886719 24.746094 9.890625 "/>
<path style=" stroke:none;fill-rule:nonzero;fill:rgb(99.215686%,80%,0%);fill-opacity:1;" d="M 27.011719 9.117188 C 26.371094 9.117188 25.863281 8.617188 25.886719 8.003906 L 25.875 2.761719 C 25.875 2.125 26.378906 1.621094 26.996094 1.644531 C 27.609375 1.671875 28.144531 2.144531 28.117188 2.753906 L 28.132812 8 C 28.160156 8.609375 27.652344 9.113281 27.011719 9.117188 "/>
<path style=" stroke:none;fill-rule:nonzero;fill:rgb(100%,88.235294%,0%);fill-opacity:1;" d="M 29.304688 7.996094 C 28.664062 8 28.15625 7.496094 28.183594 6.886719 L 28.175781 3.867188 C 28.171875 3.230469 28.679688 2.726562 29.292969 2.75 C 29.933594 2.75 30.441406 3.253906 30.417969 3.863281 L 30.425781 6.882812 C 30.398438 7.492188 29.894531 7.996094 29.304688 7.996094 "/>
<path style=" stroke:none;fill-rule:nonzero;fill:rgb(100%,100%,100%);fill-opacity:1;" d="M 2.78125 4.910156 L 19.019531 4.871094 L 19.070312 4.285156 L 2.808594 4.300781 C 2.648438 4.300781 2.542969 4.40625 2.542969 4.566406 L 2.542969 5.148438 C 2.542969 5.042969 2.675781 4.910156 2.78125 4.910156 "/>
<path style=" stroke:none;fill-rule:nonzero;fill:rgb(100%,65.882353%,0%);fill-opacity:1;" d="M 19.074219 5.929688 L 2.785156 5.96875 C 2.625 5.96875 2.519531 5.863281 2.519531 5.703125 L 2.519531 6.289062 C 2.519531 6.445312 2.625 6.550781 2.785156 6.550781 L 19.074219 6.511719 Z M 19.074219 5.929688 "/>
<path style=" stroke:none;fill-rule:nonzero;fill:rgb(100%,65.882353%,0%);fill-opacity:1;" d="M 30.394531 6.007812 C 30.398438 6.644531 29.890625 7.148438 29.277344 7.125 C 28.691406 7.125 28.179688 6.675781 28.152344 6.066406 L 28.15625 6.753906 C 28.15625 7.390625 28.664062 7.894531 29.277344 7.863281 C 29.894531 7.835938 30.425781 7.359375 30.398438 6.75 Z M 30.394531 6.007812 "/>
<path style=" stroke:none;fill-rule:nonzero;fill:rgb(100%,100%,100%);fill-opacity:1;" d="M 30.390625 3.78125 C 30.390625 3.148438 29.878906 2.644531 29.265625 2.671875 C 28.625 2.675781 28.121094 3.179688 28.148438 3.789062 L 28.148438 4.6875 C 28.203125 4.105469 28.679688 3.628906 29.269531 3.625 C 29.910156 3.625 30.417969 4.128906 30.394531 4.738281 Z M 30.390625 3.78125 "/>
<path style=" stroke:none;fill-rule:nonzero;fill:rgb(99.215686%,80%,0%);fill-opacity:1;" d="M 27.039062 8.292969 C 26.394531 8.296875 25.886719 7.792969 25.914062 7.183594 L 25.878906 3.609375 C 25.875 2.972656 26.382812 2.46875 26.996094 2.492188 C 27.636719 2.492188 28.144531 2.992188 28.121094 3.601562 L 28.128906 7.207031 C 28.132812 7.789062 27.625 8.292969 27.039062 8.292969 "/>
<path style=" stroke:none;fill-rule:nonzero;fill:rgb(100%,65.882353%,0%);fill-opacity:1;" d="M 25.996094 8.003906 C 25.996094 8.640625 26.503906 9.144531 27.121094 9.117188 C 27.761719 9.113281 28.265625 8.609375 28.238281 8 L 28.234375 7.152344 C 28.238281 7.789062 27.730469 8.292969 27.117188 8.269531 C 26.476562 8.269531 25.96875 7.765625 25.992188 7.15625 Z M 25.996094 8.003906 "/>
<path style=" stroke:none;fill-rule:nonzero;fill:rgb(100%,100%,100%);fill-opacity:1;" d="M 28.226562 2.753906 C 28.25 2.144531 27.714844 1.617188 27.101562 1.644531 C 26.460938 1.644531 25.953125 2.152344 25.980469 2.761719 L 25.984375 3.609375 C 25.984375 2.972656 26.488281 2.46875 27.101562 2.492188 C 27.742188 2.492188 28.253906 2.992188 28.226562 3.601562 Z M 28.226562 2.753906 "/>
<path style=" stroke:none;fill-rule:nonzero;fill:rgb(100%,65.882353%,0%);fill-opacity:1;" d="M 23.621094 8.832031 C 23.621094 9.46875 24.128906 9.96875 24.746094 9.941406 C 25.386719 9.941406 25.890625 9.4375 25.863281 8.828125 L 25.863281 7.980469 C 25.863281 8.617188 25.355469 9.121094 24.742188 9.09375 C 24.101562 9.097656 23.59375 8.59375 23.617188 7.984375 Z M 23.621094 8.832031 "/>
<path style=" stroke:none;fill-rule:nonzero;fill:rgb(100%,100%,100%);fill-opacity:1;" d="M 25.84375 1.566406 C 25.84375 0.933594 25.335938 0.429688 24.722656 0.457031 C 24.082031 0.460938 23.574219 0.964844 23.601562 1.574219 L 23.605469 2.421875 C 23.601562 1.785156 24.109375 1.28125 24.722656 1.304688 C 25.363281 1.304688 25.875 1.804688 25.847656 2.414062 Z M 25.84375 1.566406 "/>
<path style=" stroke:none;fill-rule:nonzero;fill:rgb(100%,65.882353%,0%);fill-opacity:1;" d="M 21.296875 7.964844 C 21.296875 8.601562 21.804688 9.101562 22.417969 9.074219 C 23.058594 9.074219 23.566406 8.566406 23.539062 7.957031 L 23.5625 7.136719 C 23.566406 7.773438 23.058594 8.277344 22.445312 8.253906 C 21.804688 8.253906 21.296875 7.753906 21.320312 7.144531 Z M 21.296875 7.964844 "/>
<path style=" stroke:none;fill-rule:nonzero;fill:rgb(100%,100%,100%);fill-opacity:1;" d="M 23.710938 2.632812 C 23.710938 1.996094 23.203125 1.496094 22.589844 1.523438 C 21.945312 1.523438 21.441406 2.03125 21.46875 2.640625 L 21.472656 3.484375 C 21.46875 2.851562 21.976562 2.347656 22.589844 2.371094 C 23.230469 2.371094 23.738281 2.871094 23.714844 3.480469 Z M 23.710938 2.632812 "/>
<path style=" stroke:none;fill-rule:nonzero;fill:rgb(100%,65.882353%,0%);fill-opacity:1;" d="M 18.996094 6.910156 C 18.996094 7.546875 19.507812 8.046875 20.121094 8.019531 C 20.761719 8.019531 21.265625 7.515625 21.238281 6.90625 L 21.238281 6.058594 C 21.238281 6.691406 20.734375 7.195312 20.117188 7.171875 C 19.476562 7.175781 18.96875 6.671875 18.996094 6.0625 Z M 18.996094 6.910156 "/>
<path style=" stroke:none;fill-rule:nonzero;fill:rgb(100%,100%,100%);fill-opacity:1;" d="M 21.3125 3.804688 C 21.308594 3.167969 20.800781 2.667969 20.1875 2.695312 C 19.546875 2.695312 19.039062 3.199219 19.070312 3.808594 L 19.070312 4.65625 C 19.070312 4.023438 19.574219 3.515625 20.1875 3.542969 C 20.832031 3.539062 21.339844 4.042969 21.3125 4.652344 Z M 21.3125 3.804688 "/>
<path style=" stroke:none;fill-rule:nonzero;fill:rgb(0%,0%,0%);fill-opacity:1;" d="M 28.210938 7.921875 C 27.917969 7.628906 27.753906 7.257812 27.78125 6.863281 L 27.773438 3.894531 C 27.773438 3.472656 27.933594 3.101562 28.199219 2.835938 C 28.492188 2.542969 28.863281 2.382812 29.265625 2.40625 C 29.667969 2.433594 30.066406 2.566406 30.335938 2.828125 C 30.628906 3.121094 30.789062 3.488281 30.765625 3.886719 L 30.800781 6.882812 C 30.800781 7.730469 30.136719 8.394531 29.28125 8.394531 C 28.878906 8.371094 28.507812 8.210938 28.210938 7.921875 Z M 29.800781 3.359375 C 29.667969 3.226562 29.480469 3.148438 29.265625 3.148438 C 29.054688 3.152344 28.867188 3.230469 28.734375 3.363281 C 28.601562 3.496094 28.519531 3.679688 28.523438 3.894531 L 28.53125 6.914062 C 28.53125 7.335938 28.878906 7.679688 29.277344 7.652344 C 29.707031 7.652344 30.027344 7.332031 30.023438 6.910156 L 30.015625 3.890625 C 30.015625 3.675781 29.9375 3.492188 29.800781 3.359375 Z M 29.800781 3.359375 "/>
<path style=" stroke:none;fill-rule:nonzero;fill:rgb(0%,0%,0%);fill-opacity:1;" d="M 25.945312 9.066406 C 25.648438 8.773438 25.488281 8.402344 25.515625 8.007812 L 25.5 2.761719 C 25.5 1.914062 26.164062 1.25 27.019531 1.246094 C 27.445312 1.246094 27.820312 1.40625 28.089844 1.667969 C 28.382812 1.960938 28.542969 2.328125 28.519531 2.726562 L 28.53125 7.972656 C 28.535156 8.820312 27.867188 9.484375 27.011719 9.488281 C 26.613281 9.515625 26.238281 9.355469 25.945312 9.066406 Z M 27.53125 2.226562 C 27.394531 2.09375 27.207031 2.015625 26.996094 2.015625 C 26.566406 2.015625 26.25 2.335938 26.25 2.757812 L 26.261719 8.003906 C 26.261719 8.429688 26.609375 8.773438 27.011719 8.746094 C 27.4375 8.742188 27.757812 8.425781 27.757812 8 L 27.746094 2.757812 C 27.769531 2.570312 27.691406 2.386719 27.53125 2.226562 Z M 27.53125 2.226562 "/>
<path style=" stroke:none;fill-rule:nonzero;fill:rgb(0%,0%,0%);fill-opacity:1;" d="M 21.40625 9.078125 C 21.109375 8.785156 20.949219 8.414062 20.976562 8.019531 L 20.960938 2.773438 C 20.960938 1.925781 21.625 1.261719 22.480469 1.257812 C 22.90625 1.257812 23.28125 1.414062 23.550781 1.679688 C 23.84375 1.96875 24.003906 2.339844 23.980469 2.738281 L 23.992188 7.984375 C 23.996094 8.832031 23.328125 9.496094 22.472656 9.496094 C 22.101562 9.5 21.699219 9.367188 21.40625 9.078125 Z M 22.992188 2.238281 C 22.855469 2.105469 22.667969 2.027344 22.457031 2.027344 C 22.027344 2.027344 21.707031 2.347656 21.710938 2.769531 L 21.722656 8.015625 C 21.722656 8.441406 22.070312 8.785156 22.472656 8.753906 C 22.898438 8.753906 23.21875 8.4375 23.21875 8.011719 L 23.203125 2.765625 C 23.230469 2.582031 23.152344 2.394531 22.992188 2.238281 Z M 22.992188 2.238281 "/>
<path style=" stroke:none;fill-rule:nonzero;fill:rgb(0%,0%,0%);fill-opacity:1;" d="M 19.160156 7.96875 C 18.863281 7.679688 18.703125 7.308594 18.730469 6.910156 L 18.695312 3.917969 C 18.691406 3.070312 19.359375 2.40625 20.214844 2.402344 C 20.640625 2.402344 21.015625 2.558594 21.28125 2.824219 C 21.578125 3.113281 21.738281 3.484375 21.710938 3.882812 L 21.71875 6.902344 C 21.722656 7.75 21.054688 8.414062 20.203125 8.417969 C 19.800781 8.390625 19.425781 8.234375 19.160156 7.96875 Z M 20.75 3.355469 C 20.617188 3.222656 20.429688 3.144531 20.214844 3.144531 C 19.789062 3.144531 19.46875 3.464844 19.46875 3.886719 L 19.476562 6.910156 C 19.476562 7.332031 19.824219 7.675781 20.226562 7.648438 C 20.652344 7.648438 20.972656 7.328125 20.972656 6.90625 L 20.964844 3.886719 C 20.992188 3.699219 20.910156 3.515625 20.75 3.355469 Z M 20.75 3.355469 "/>
<path style=" stroke:none;fill-rule:nonzero;fill:rgb(0%,0%,0%);fill-opacity:1;" d="M 23.703125 9.8125 C 23.410156 9.523438 23.246094 9.152344 23.273438 8.753906 L 23.230469 1.628906 C 23.226562 0.78125 23.894531 0.117188 24.746094 0.113281 C 25.175781 0.113281 25.546875 0.269531 25.816406 0.535156 C 26.109375 0.824219 26.273438 1.195312 26.246094 1.59375 L 26.265625 8.746094 C 26.265625 9.171875 26.105469 9.542969 25.839844 9.808594 C 25.574219 10.074219 25.171875 10.257812 24.773438 10.234375 C 24.371094 10.261719 23.996094 10.101562 23.703125 9.8125 Z M 25.285156 1.121094 C 25.148438 0.988281 24.964844 0.90625 24.75 0.910156 C 24.320312 0.910156 24.003906 1.226562 24.003906 1.652344 L 24.019531 8.753906 C 24.023438 9.175781 24.371094 9.519531 24.769531 9.492188 C 24.984375 9.492188 25.171875 9.410156 25.304688 9.277344 C 25.4375 9.144531 25.515625 8.960938 25.515625 8.75 L 25.5 1.648438 C 25.5 1.4375 25.417969 1.25 25.285156 1.121094 Z M 25.285156 1.121094 "/>
<path style=" stroke:none;fill-rule:nonzero;fill:rgb(0%,0%,0%);fill-opacity:1;" d="M 2.386719 6.738281 C 2.28125 6.632812 2.199219 6.449219 2.199219 6.289062 L 2.195312 4.539062 C 2.195312 4.167969 2.460938 3.902344 2.832031 3.902344 L 19.496094 3.863281 L 19.503906 6.882812 L 2.816406 6.949219 C 2.65625 6.949219 2.519531 6.871094 2.386719 6.738281 Z M 2.941406 4.695312 L 2.945312 6.179688 L 18.699219 6.140625 L 18.695312 4.660156 Z M 2.941406 4.695312 "/>
<path style=" stroke:none;fill-rule:nonzero;fill:rgb(100%,88.235294%,0%);fill-opacity:1;" d="M 19.023438 28.113281 L 2.820312 28.152344 C 2.660156 28.152344 2.554688 28.046875 2.554688 27.886719 L 2.546875 26.117188 C 2.546875 25.957031 2.65625 25.851562 2.816406 25.851562 L 19.019531 25.863281 Z M 19.023438 28.113281 "/>
<path style=" stroke:none;fill-rule:nonzero;fill:rgb(100%,88.235294%,0%);fill-opacity:1;" d="M 20.160156 24.335938 C 20.800781 24.335938 21.308594 24.84375 21.28125 25.457031 L 21.289062 28.507812 C 21.292969 29.148438 20.785156 29.660156 20.171875 29.632812 C 19.535156 29.636719 19.027344 29.128906 19.050781 28.511719 L 19.042969 25.464844 C 19.015625 24.847656 19.519531 24.339844 20.160156 24.335938 "/>
<path style=" stroke:none;fill-rule:nonzero;fill:rgb(99.215686%,80%,0%);fill-opacity:1;" d="M 22.441406 30.777344 C 21.800781 30.78125 21.292969 30.273438 21.320312 29.65625 L 21.304688 24.359375 C 21.304688 23.71875 21.808594 23.207031 22.421875 23.234375 C 23.0625 23.230469 23.570312 23.738281 23.546875 24.355469 L 23.558594 29.652344 C 23.558594 30.242188 23.054688 30.75 22.441406 30.777344 "/>
<path style=" stroke:none;fill-rule:nonzero;fill:rgb(100%,88.235294%,0%);fill-opacity:1;" d="M 24.683594 31.523438 C 24.042969 31.523438 23.535156 31.015625 23.558594 30.402344 L 23.542969 23.175781 C 23.542969 22.535156 24.046875 22.027344 24.660156 22.050781 C 25.300781 22.050781 25.804688 22.554688 25.78125 23.171875 L 25.824219 30.371094 C 25.828125 31.011719 25.320312 31.519531 24.683594 31.523438 "/>
<path style=" stroke:none;fill-rule:nonzero;fill:rgb(99.215686%,80%,0%);fill-opacity:1;" d="M 26.945312 30.742188 C 26.304688 30.742188 25.796875 30.234375 25.824219 29.621094 L 25.8125 24.324219 C 25.808594 23.679688 26.3125 23.171875 26.925781 23.195312 C 27.539062 23.222656 28.074219 23.703125 28.050781 24.316406 L 28.0625 29.613281 C 28.089844 30.230469 27.585938 30.738281 26.945312 30.742188 "/>
<path style=" stroke:none;fill-rule:nonzero;fill:rgb(100%,88.235294%,0%);fill-opacity:1;" d="M 29.234375 29.613281 C 28.59375 29.613281 28.085938 29.105469 28.113281 28.492188 L 28.105469 25.441406 C 28.105469 24.796875 28.609375 24.289062 29.222656 24.3125 C 29.863281 24.3125 30.371094 24.820312 30.34375 25.433594 L 30.351562 28.484375 C 30.328125 29.101562 29.820312 29.609375 29.234375 29.613281 "/>
<path style=" stroke:none;fill-rule:nonzero;fill:rgb(100%,100%,100%);fill-opacity:1;" d="M 2.761719 26.492188 L 18.964844 26.453125 L 19.019531 25.863281 L 2.789062 25.878906 C 2.628906 25.878906 2.523438 25.984375 2.523438 26.144531 L 2.523438 26.734375 C 2.523438 26.628906 2.65625 26.492188 2.761719 26.492188 "/>
<path style=" stroke:none;fill-rule:nonzero;fill:rgb(100%,65.882353%,0%);fill-opacity:1;" d="M 19.023438 27.523438 L 2.765625 27.5625 C 2.605469 27.5625 2.5 27.457031 2.5 27.296875 L 2.5 27.886719 C 2.5 28.046875 2.605469 28.152344 2.765625 28.152344 L 19.023438 28.113281 Z M 19.023438 27.523438 "/>
<path style=" stroke:none;fill-rule:nonzero;fill:rgb(100%,65.882353%,0%);fill-opacity:1;" d="M 30.324219 27.601562 C 30.324219 28.246094 29.820312 28.753906 29.207031 28.730469 C 28.621094 28.730469 28.113281 28.277344 28.085938 27.660156 L 28.085938 28.355469 C 28.085938 29 28.59375 29.507812 29.207031 29.476562 C 29.820312 29.449219 30.351562 28.964844 30.324219 28.351562 Z M 30.324219 27.601562 "/>
<path style=" stroke:none;fill-rule:nonzero;fill:rgb(100%,100%,100%);fill-opacity:1;" d="M 30.316406 25.355469 C 30.316406 24.710938 29.808594 24.207031 29.195312 24.234375 C 28.554688 24.234375 28.050781 24.746094 28.078125 25.359375 L 28.082031 26.269531 C 28.132812 25.679688 28.609375 25.199219 29.199219 25.195312 C 29.835938 25.195312 30.34375 25.703125 30.320312 26.316406 Z M 30.316406 25.355469 "/>
<path style=" stroke:none;fill-rule:nonzero;fill:rgb(99.215686%,80%,0%);fill-opacity:1;" d="M 26.96875 29.910156 C 26.332031 29.914062 25.824219 29.40625 25.847656 28.789062 L 25.8125 25.179688 C 25.8125 24.535156 26.316406 24.027344 26.929688 24.050781 C 27.570312 24.050781 28.078125 24.558594 28.050781 25.171875 L 28.058594 28.8125 C 28.0625 29.402344 27.558594 29.910156 26.96875 29.910156 "/>
<path style=" stroke:none;fill-rule:nonzero;fill:rgb(100%,65.882353%,0%);fill-opacity:1;" d="M 25.929688 29.621094 C 25.933594 30.261719 26.4375 30.769531 27.050781 30.742188 C 27.691406 30.738281 28.195312 30.230469 28.167969 29.613281 L 28.167969 28.757812 C 28.167969 29.398438 27.664062 29.910156 27.050781 29.882812 C 26.410156 29.886719 25.902344 29.378906 25.929688 28.761719 Z M 25.929688 29.621094 "/>
<path style=" stroke:none;fill-rule:nonzero;fill:rgb(100%,100%,100%);fill-opacity:1;" d="M 28.15625 24.316406 C 28.179688 23.703125 27.644531 23.167969 27.035156 23.195312 C 26.394531 23.199219 25.890625 23.707031 25.917969 24.324219 L 25.917969 25.179688 C 25.917969 24.535156 26.421875 24.027344 27.035156 24.050781 C 27.675781 24.050781 28.183594 24.558594 28.15625 25.171875 Z M 28.15625 24.316406 "/>
<path style=" stroke:none;fill-rule:nonzero;fill:rgb(100%,65.882353%,0%);fill-opacity:1;" d="M 23.558594 30.457031 C 23.5625 31.097656 24.070312 31.605469 24.683594 31.578125 C 25.320312 31.574219 25.828125 31.066406 25.796875 30.449219 L 25.796875 29.59375 C 25.796875 30.234375 25.292969 30.746094 24.679688 30.71875 C 24.039062 30.722656 23.53125 30.214844 23.558594 29.597656 Z M 23.558594 30.457031 "/>
<path style=" stroke:none;fill-rule:nonzero;fill:rgb(100%,100%,100%);fill-opacity:1;" d="M 25.78125 23.117188 C 25.777344 22.476562 25.273438 21.96875 24.660156 21.996094 C 24.019531 22 23.515625 22.507812 23.542969 23.125 L 23.542969 23.980469 C 23.542969 23.339844 24.046875 22.828125 24.660156 22.855469 C 25.300781 22.851562 25.808594 23.359375 25.785156 23.976562 Z M 25.78125 23.117188 "/>
<path style=" stroke:none;fill-rule:nonzero;fill:rgb(100%,65.882353%,0%);fill-opacity:1;" d="M 21.238281 29.578125 C 21.242188 30.21875 21.75 30.726562 22.363281 30.699219 C 23 30.699219 23.507812 30.1875 23.476562 29.574219 L 23.503906 28.742188 C 23.503906 29.386719 23 29.894531 22.386719 29.871094 C 21.746094 29.871094 21.238281 29.363281 21.265625 28.75 Z M 21.238281 29.578125 "/>
<path style=" stroke:none;fill-rule:nonzero;fill:rgb(100%,100%,100%);fill-opacity:1;" d="M 23.652344 24.195312 C 23.648438 23.550781 23.140625 23.042969 22.53125 23.074219 C 21.890625 23.074219 21.386719 23.585938 21.414062 24.199219 L 21.414062 25.054688 C 21.414062 24.414062 21.917969 23.902344 22.53125 23.929688 C 23.171875 23.925781 23.679688 24.433594 23.652344 25.050781 Z M 23.652344 24.195312 "/>
<path style=" stroke:none;fill-rule:nonzero;fill:rgb(100%,65.882353%,0%);fill-opacity:1;" d="M 18.945312 28.511719 C 18.945312 29.15625 19.453125 29.664062 20.066406 29.632812 C 20.707031 29.632812 21.210938 29.125 21.183594 28.507812 L 21.179688 27.652344 C 21.183594 28.292969 20.679688 28.804688 20.066406 28.777344 C 19.425781 28.78125 18.917969 28.273438 18.941406 27.65625 Z M 18.945312 28.511719 "/>
<path style=" stroke:none;fill-rule:nonzero;fill:rgb(100%,100%,100%);fill-opacity:1;" d="M 21.257812 25.378906 C 21.253906 24.734375 20.746094 24.226562 20.132812 24.257812 C 19.496094 24.257812 18.988281 24.765625 19.015625 25.382812 L 19.019531 26.238281 C 19.015625 25.597656 19.523438 25.085938 20.136719 25.113281 C 20.773438 25.109375 21.28125 25.617188 21.257812 26.234375 Z M 21.257812 25.378906 "/>
<path style=" stroke:none;fill-rule:nonzero;fill:rgb(0%,0%,0%);fill-opacity:1;" d="M 28.140625 29.535156 C 27.847656 29.242188 27.6875 28.867188 27.714844 28.464844 L 27.707031 25.46875 C 27.703125 25.039062 27.863281 24.664062 28.128906 24.398438 C 28.421875 24.101562 28.792969 23.941406 29.195312 23.964844 C 29.59375 23.992188 29.996094 24.125 30.261719 24.390625 C 30.554688 24.683594 30.714844 25.058594 30.691406 25.460938 L 30.722656 28.484375 C 30.726562 29.339844 30.0625 30.011719 29.210938 30.011719 C 28.808594 29.988281 28.4375 29.828125 28.140625 29.535156 Z M 29.730469 24.929688 C 29.597656 24.792969 29.410156 24.714844 29.195312 24.714844 C 28.984375 24.714844 28.796875 24.796875 28.664062 24.929688 C 28.53125 25.066406 28.449219 25.253906 28.453125 25.464844 L 28.460938 28.515625 C 28.460938 28.945312 28.808594 29.292969 29.207031 29.265625 C 29.632812 29.261719 29.953125 28.941406 29.953125 28.511719 L 29.945312 25.460938 C 29.945312 25.25 29.863281 25.0625 29.730469 24.929688 Z M 29.730469 24.929688 "/>
<path style=" stroke:none;fill-rule:nonzero;fill:rgb(0%,0%,0%);fill-opacity:1;" d="M 25.878906 30.691406 C 25.585938 30.398438 25.425781 30.023438 25.449219 29.621094 L 25.4375 24.324219 C 25.433594 23.46875 26.101562 22.796875 26.953125 22.792969 C 27.378906 22.792969 27.753906 22.953125 28.019531 23.21875 C 28.3125 23.515625 28.472656 23.886719 28.449219 24.289062 L 28.460938 29.585938 C 28.464844 30.441406 27.800781 31.113281 26.945312 31.117188 C 26.546875 31.144531 26.171875 30.984375 25.878906 30.691406 Z M 27.460938 23.785156 C 27.328125 23.648438 27.140625 23.570312 26.929688 23.570312 C 26.5 23.570312 26.183594 23.894531 26.183594 24.320312 L 26.195312 29.621094 C 26.199219 30.046875 26.542969 30.394531 26.945312 30.367188 C 27.371094 30.367188 27.691406 30.042969 27.6875 29.617188 L 27.675781 24.316406 C 27.703125 24.128906 27.621094 23.945312 27.460938 23.785156 Z M 27.460938 23.785156 "/>
<path style=" stroke:none;fill-rule:nonzero;fill:rgb(0%,0%,0%);fill-opacity:1;" d="M 21.347656 30.703125 C 21.054688 30.40625 20.894531 30.035156 20.917969 29.632812 L 20.90625 24.335938 C 20.90625 23.476562 21.570312 22.808594 22.421875 22.804688 C 22.847656 22.804688 23.222656 22.964844 23.488281 23.230469 C 23.78125 23.523438 23.945312 23.898438 23.917969 24.300781 L 23.929688 29.597656 C 23.933594 30.453125 23.269531 31.125 22.414062 31.128906 C 22.042969 31.128906 21.644531 30.996094 21.347656 30.703125 Z M 22.929688 23.792969 C 22.796875 23.660156 22.609375 23.582031 22.398438 23.582031 C 21.972656 23.582031 21.652344 23.90625 21.652344 24.332031 L 21.667969 29.628906 C 21.667969 30.058594 22.015625 30.40625 22.414062 30.378906 C 22.839844 30.375 23.160156 30.054688 23.160156 29.625 L 23.144531 24.328125 C 23.171875 24.140625 23.089844 23.953125 22.929688 23.792969 Z M 22.929688 23.792969 "/>
<path style=" stroke:none;fill-rule:nonzero;fill:rgb(0%,0%,0%);fill-opacity:1;" d="M 19.109375 29.582031 C 18.8125 29.289062 18.652344 28.914062 18.679688 28.515625 L 18.644531 25.492188 C 18.640625 24.632812 19.308594 23.964844 20.160156 23.960938 C 20.585938 23.960938 20.960938 24.121094 21.226562 24.386719 C 21.519531 24.679688 21.679688 25.054688 21.65625 25.457031 L 21.664062 28.507812 C 21.664062 29.363281 21 30.035156 20.148438 30.035156 C 19.746094 30.011719 19.375 29.851562 19.109375 29.582031 Z M 20.695312 24.921875 C 20.5625 24.789062 20.375 24.710938 20.160156 24.710938 C 19.734375 24.710938 19.414062 25.035156 19.417969 25.460938 L 19.425781 28.511719 C 19.425781 28.941406 19.773438 29.289062 20.171875 29.257812 C 20.597656 29.257812 20.917969 28.9375 20.917969 28.507812 L 20.910156 25.457031 C 20.9375 25.269531 20.855469 25.082031 20.695312 24.921875 Z M 20.695312 24.921875 "/>
<path style=" stroke:none;fill-rule:nonzero;fill:rgb(0%,0%,0%);fill-opacity:1;" d="M 23.644531 31.445312 C 23.347656 31.152344 23.1875 30.777344 23.214844 30.375 L 23.167969 23.179688 C 23.167969 22.320312 23.832031 21.652344 24.683594 21.648438 C 25.109375 21.648438 25.484375 21.808594 25.75 22.074219 C 26.046875 22.367188 26.207031 22.742188 26.179688 23.144531 L 26.199219 30.367188 C 26.199219 30.796875 26.039062 31.171875 25.773438 31.441406 C 25.507812 31.707031 25.109375 31.894531 24.710938 31.871094 C 24.308594 31.898438 23.9375 31.738281 23.644531 31.445312 Z M 25.21875 22.664062 C 25.085938 22.53125 24.898438 22.453125 24.6875 22.453125 C 24.261719 22.453125 23.941406 22.773438 23.941406 23.203125 L 23.960938 30.375 C 23.960938 30.800781 24.308594 31.148438 24.707031 31.121094 C 24.921875 31.121094 25.105469 31.039062 25.242188 30.90625 C 25.375 30.773438 25.453125 30.585938 25.453125 30.371094 L 25.433594 23.199219 C 25.433594 22.984375 25.355469 22.796875 25.21875 22.664062 Z M 25.21875 22.664062 "/>
<path style=" stroke:none;fill-rule:nonzero;fill:rgb(0%,0%,0%);fill-opacity:1;" d="M 2.367188 28.339844 C 2.261719 28.234375 2.179688 28.046875 2.179688 27.886719 L 2.175781 26.121094 C 2.175781 25.746094 2.441406 25.476562 2.8125 25.476562 L 19.445312 25.433594 L 19.453125 28.484375 L 2.792969 28.554688 C 2.632812 28.554688 2.5 28.472656 2.367188 28.339844 Z M 2.921875 26.277344 L 2.925781 27.777344 L 18.648438 27.738281 L 18.644531 26.238281 Z M 2.921875 26.277344 "/>
<path style=" stroke:none;fill-rule:nonzero;fill:rgb(100%,88.235294%,0%);fill-opacity:1;" d="M 13.855469 14.914062 L 30.058594 14.933594 C 30.21875 14.933594 30.324219 15.039062 30.324219 15.199219 L 30.324219 16.941406 C 30.324219 17.101562 30.214844 17.207031 30.054688 17.207031 L 13.855469 17.136719 Z M 13.855469 14.914062 "/>
<path style=" stroke:none;fill-rule:nonzero;fill:rgb(100%,88.235294%,0%);fill-opacity:1;" d="M 12.707031 18.640625 C 12.066406 18.640625 11.5625 18.136719 11.589844 17.53125 L 11.589844 14.515625 C 11.59375 13.882812 12.097656 13.378906 12.710938 13.40625 C 13.351562 13.40625 13.859375 13.910156 13.832031 14.519531 L 13.828125 17.53125 C 13.851562 18.140625 13.347656 18.640625 12.707031 18.640625 "/>
<path style=" stroke:none;fill-rule:nonzero;fill:rgb(99.215686%,80%,0%);fill-opacity:1;" d="M 10.449219 12.265625 C 11.089844 12.269531 11.59375 12.769531 11.566406 13.378906 L 11.558594 18.613281 C 11.558594 19.25 11.050781 19.75 10.441406 19.722656 C 9.800781 19.722656 9.292969 19.21875 9.320312 18.613281 L 9.328125 13.375 C 9.328125 12.792969 9.835938 12.292969 10.449219 12.265625 "/>
<path style=" stroke:none;fill-rule:nonzero;fill:rgb(100%,88.235294%,0%);fill-opacity:1;" d="M 8.210938 11.523438 C 8.851562 11.523438 9.355469 12.027344 9.328125 12.636719 L 9.320312 19.773438 C 9.320312 20.410156 8.8125 20.910156 8.199219 20.882812 C 7.558594 20.882812 7.054688 20.378906 7.082031 19.773438 L 7.0625 12.660156 C 7.0625 12.023438 7.570312 11.523438 8.210938 11.523438 "/>
<path style=" stroke:none;fill-rule:nonzero;fill:rgb(99.215686%,80%,0%);fill-opacity:1;" d="M 5.945312 12.289062 C 6.585938 12.289062 7.089844 12.792969 7.0625 13.398438 L 7.054688 18.636719 C 7.054688 19.269531 6.550781 19.773438 5.9375 19.746094 C 5.324219 19.71875 4.789062 19.242188 4.816406 18.632812 L 4.824219 13.398438 C 4.796875 12.789062 5.304688 12.289062 5.945312 12.289062 "/>
<path style=" stroke:none;fill-rule:nonzero;fill:rgb(100%,88.235294%,0%);fill-opacity:1;" d="M 3.652344 13.394531 C 4.292969 13.398438 4.796875 13.898438 4.769531 14.507812 L 4.765625 17.523438 C 4.765625 18.15625 4.257812 18.660156 3.644531 18.632812 C 3.007812 18.632812 2.5 18.128906 2.527344 17.519531 L 2.53125 14.503906 C 2.558594 13.898438 3.066406 13.394531 3.652344 13.394531 "/>
<path style=" stroke:none;fill-rule:nonzero;fill:rgb(100%,100%,100%);fill-opacity:1;" d="M 30.109375 16.574219 L 13.90625 16.554688 L 13.855469 17.136719 L 30.082031 17.179688 C 30.242188 17.179688 30.351562 17.074219 30.351562 16.917969 L 30.351562 16.335938 C 30.351562 16.441406 30.21875 16.574219 30.109375 16.574219 "/>
<path style=" stroke:none;fill-rule:nonzero;fill:rgb(100%,65.882353%,0%);fill-opacity:1;" d="M 13.855469 15.496094 L 30.113281 15.515625 C 30.269531 15.515625 30.378906 15.621094 30.378906 15.78125 L 30.378906 15.199219 C 30.378906 15.039062 30.273438 14.933594 30.113281 14.933594 L 13.855469 14.914062 Z M 13.855469 15.496094 "/>
<path style=" stroke:none;fill-rule:nonzero;fill:rgb(100%,65.882353%,0%);fill-opacity:1;" d="M 2.558594 15.378906 C 2.558594 14.742188 3.0625 14.242188 3.675781 14.269531 C 4.261719 14.269531 4.769531 14.71875 4.796875 15.328125 L 4.796875 14.640625 C 4.796875 14.007812 4.289062 13.503906 3.679688 13.527344 C 3.066406 13.554688 2.53125 14.03125 2.558594 14.636719 Z M 2.558594 15.378906 "/>
<path style=" stroke:none;fill-rule:nonzero;fill:rgb(100%,100%,100%);fill-opacity:1;" d="M 2.554688 17.597656 C 2.554688 18.234375 3.058594 18.738281 3.671875 18.710938 C 4.3125 18.710938 4.820312 18.210938 4.792969 17.601562 L 4.792969 16.703125 C 4.738281 17.285156 4.257812 17.761719 3.671875 17.757812 C 3.035156 17.757812 2.527344 17.253906 2.554688 16.648438 Z M 2.554688 17.597656 "/>
<path style=" stroke:none;fill-rule:nonzero;fill:rgb(99.215686%,80%,0%);fill-opacity:1;" d="M 5.917969 13.109375 C 6.558594 13.109375 7.0625 13.613281 7.035156 14.21875 L 7.058594 17.789062 C 7.058594 18.425781 6.550781 18.925781 5.9375 18.898438 C 5.296875 18.898438 4.792969 18.394531 4.820312 17.785156 L 4.824219 14.191406 C 4.824219 13.609375 5.332031 13.105469 5.917969 13.109375 "/>
<path style=" stroke:none;fill-rule:nonzero;fill:rgb(100%,65.882353%,0%);fill-opacity:1;" d="M 6.957031 13.398438 C 6.957031 12.765625 6.449219 12.261719 5.839844 12.289062 C 5.199219 12.289062 4.691406 12.789062 4.71875 13.398438 L 4.714844 14.242188 C 4.71875 13.609375 5.222656 13.105469 5.835938 13.132812 C 6.476562 13.136719 6.980469 13.636719 6.957031 14.246094 Z M 6.957031 13.398438 "/>
<path style=" stroke:none;fill-rule:nonzero;fill:rgb(100%,100%,100%);fill-opacity:1;" d="M 4.710938 18.632812 C 4.683594 19.242188 5.21875 19.769531 5.828125 19.746094 C 6.46875 19.746094 6.976562 19.242188 6.949219 18.636719 L 6.949219 17.789062 C 6.949219 18.421875 6.445312 18.925781 5.832031 18.898438 C 5.191406 18.898438 4.683594 18.394531 4.710938 17.785156 Z M 4.710938 18.632812 "/>
<path style=" stroke:none;fill-rule:nonzero;fill:rgb(100%,65.882353%,0%);fill-opacity:1;" d="M 9.328125 12.582031 C 9.328125 11.949219 8.824219 11.445312 8.210938 11.472656 C 7.570312 11.46875 7.0625 11.972656 7.089844 12.582031 L 7.089844 13.425781 C 7.089844 12.792969 7.597656 12.289062 8.210938 12.316406 C 8.847656 12.316406 9.355469 12.820312 9.328125 13.429688 Z M 9.328125 12.582031 "/>
<path style=" stroke:none;fill-rule:nonzero;fill:rgb(100%,100%,100%);fill-opacity:1;" d="M 7.082031 19.824219 C 7.082031 20.460938 7.585938 20.960938 8.199219 20.9375 C 8.839844 20.9375 9.347656 20.4375 9.320312 19.828125 L 9.320312 18.980469 C 9.320312 19.617188 8.8125 20.117188 8.199219 20.089844 C 7.5625 20.089844 7.054688 19.585938 7.082031 18.980469 Z M 7.082031 19.824219 "/>
<path style=" stroke:none;fill-rule:nonzero;fill:rgb(100%,65.882353%,0%);fill-opacity:1;" d="M 11.644531 13.457031 C 11.648438 12.824219 11.140625 12.320312 10.527344 12.347656 C 9.890625 12.34375 9.382812 12.847656 9.40625 13.457031 L 9.378906 14.277344 C 9.378906 13.640625 9.886719 13.140625 10.5 13.167969 C 11.140625 13.167969 11.644531 13.667969 11.617188 14.277344 Z M 11.644531 13.457031 "/>
<path style=" stroke:none;fill-rule:nonzero;fill:rgb(100%,100%,100%);fill-opacity:1;" d="M 9.214844 18.769531 C 9.214844 19.40625 9.71875 19.90625 10.332031 19.882812 C 10.972656 19.882812 11.480469 19.378906 11.453125 18.773438 L 11.453125 17.925781 C 11.453125 18.5625 10.945312 19.0625 10.335938 19.035156 C 9.695312 19.035156 9.1875 18.53125 9.214844 17.925781 Z M 9.214844 18.769531 "/>
<path style=" stroke:none;fill-rule:nonzero;fill:rgb(100%,65.882353%,0%);fill-opacity:1;" d="M 13.9375 14.519531 C 13.9375 13.882812 13.433594 13.382812 12.820312 13.40625 C 12.179688 13.40625 11.671875 13.90625 11.699219 14.515625 L 11.695312 15.363281 C 11.699219 14.726562 12.203125 14.226562 12.816406 14.253906 C 13.457031 14.253906 13.964844 14.757812 13.9375 15.363281 Z M 13.9375 14.519531 "/>
<path style=" stroke:none;fill-rule:nonzero;fill:rgb(100%,100%,100%);fill-opacity:1;" d="M 11.613281 17.609375 C 11.613281 18.242188 12.121094 18.746094 12.734375 18.722656 C 13.371094 18.722656 13.878906 18.21875 13.851562 17.613281 L 13.855469 16.765625 C 13.855469 17.398438 13.347656 17.902344 12.734375 17.875 C 12.09375 17.875 11.589844 17.371094 11.617188 16.761719 Z M 11.613281 17.609375 "/>
<path style=" stroke:none;fill-rule:nonzero;fill:rgb(0%,0%,0%);fill-opacity:1;" d="M 4.742188 13.476562 C 5.035156 13.769531 5.195312 14.136719 5.167969 14.535156 L 5.167969 17.496094 C 5.164062 17.917969 5.003906 18.289062 4.738281 18.554688 C 4.445312 18.84375 4.070312 19.003906 3.671875 18.976562 C 3.273438 18.949219 2.871094 18.816406 2.605469 18.550781 C 2.3125 18.261719 2.152344 17.890625 2.179688 17.492188 L 2.15625 14.503906 C 2.160156 13.660156 2.824219 13 3.679688 13 C 4.078125 13.027344 4.449219 13.1875 4.742188 13.476562 Z M 3.140625 18.023438 C 3.273438 18.15625 3.460938 18.234375 3.671875 18.234375 C 3.886719 18.234375 4.074219 18.15625 4.207031 18.023438 C 4.339844 17.890625 4.417969 17.707031 4.417969 17.496094 L 4.421875 14.480469 C 4.425781 14.058594 4.078125 13.714844 3.679688 13.738281 C 3.25 13.738281 2.929688 14.054688 2.929688 14.480469 L 2.925781 17.492188 C 2.925781 17.707031 3.007812 17.890625 3.140625 18.023438 Z M 3.140625 18.023438 "/>
<path style=" stroke:none;fill-rule:nonzero;fill:rgb(0%,0%,0%);fill-opacity:1;" d="M 7.011719 12.34375 C 7.304688 12.632812 7.460938 13.003906 7.4375 13.402344 L 7.429688 18.636719 C 7.429688 19.480469 6.761719 20.140625 5.910156 20.140625 C 5.484375 20.140625 5.109375 19.980469 4.84375 19.71875 C 4.550781 19.425781 4.390625 19.054688 4.417969 18.660156 L 4.425781 13.421875 C 4.425781 12.578125 5.09375 11.917969 5.945312 11.917969 C 6.34375 11.890625 6.71875 12.050781 7.011719 12.34375 Z M 5.402344 19.164062 C 5.539062 19.292969 5.722656 19.375 5.9375 19.375 C 6.363281 19.375 6.683594 19.058594 6.683594 18.636719 L 6.691406 13.398438 C 6.691406 12.976562 6.34375 12.632812 5.945312 12.660156 C 5.519531 12.660156 5.199219 12.976562 5.199219 13.398438 L 5.191406 18.632812 C 5.164062 18.820312 5.246094 19.003906 5.402344 19.164062 Z M 5.402344 19.164062 "/>
<path style=" stroke:none;fill-rule:nonzero;fill:rgb(0%,0%,0%);fill-opacity:1;" d="M 11.539062 12.347656 C 11.832031 12.640625 11.992188 13.007812 11.964844 13.40625 L 11.960938 18.640625 C 11.960938 19.488281 11.292969 20.148438 10.441406 20.144531 C 10.011719 20.144531 9.640625 19.988281 9.375 19.722656 C 9.082031 19.429688 8.921875 19.0625 8.949219 18.664062 L 8.953125 13.429688 C 8.957031 12.582031 9.621094 11.921875 10.476562 11.921875 C 10.847656 11.921875 11.25 12.054688 11.539062 12.347656 Z M 9.933594 19.167969 C 10.066406 19.300781 10.253906 19.378906 10.46875 19.378906 C 10.894531 19.378906 11.214844 19.0625 11.214844 18.640625 L 11.21875 13.40625 C 11.21875 12.980469 10.875 12.636719 10.472656 12.664062 C 10.046875 12.664062 9.726562 12.980469 9.726562 13.402344 L 9.722656 18.636719 C 9.695312 18.824219 9.773438 19.007812 9.933594 19.167969 Z M 9.933594 19.167969 "/>
<path style=" stroke:none;fill-rule:nonzero;fill:rgb(0%,0%,0%);fill-opacity:1;" d="M 13.777344 13.460938 C 14.070312 13.75 14.230469 14.121094 14.203125 14.519531 L 14.226562 17.507812 C 14.226562 18.351562 13.558594 19.011719 12.707031 19.011719 C 12.28125 19.011719 11.90625 18.851562 11.640625 18.585938 C 11.347656 18.296875 11.1875 17.925781 11.214844 17.53125 L 11.21875 14.515625 C 11.21875 13.667969 11.886719 13.007812 12.738281 13.011719 C 13.140625 13.035156 13.511719 13.195312 13.777344 13.460938 Z M 12.175781 18.058594 C 12.308594 18.191406 12.492188 18.269531 12.707031 18.273438 C 13.132812 18.273438 13.453125 17.957031 13.453125 17.53125 L 13.457031 14.519531 C 13.457031 14.09375 13.113281 13.75 12.710938 13.777344 C 12.285156 13.777344 11.964844 14.09375 11.964844 14.515625 L 11.960938 17.53125 C 11.933594 17.714844 12.015625 17.902344 12.175781 18.058594 Z M 12.175781 18.058594 "/>
<path style=" stroke:none;fill-rule:nonzero;fill:rgb(0%,0%,0%);fill-opacity:1;" d="M 9.25 11.605469 C 9.542969 11.894531 9.703125 12.265625 9.675781 12.664062 L 9.695312 19.773438 C 9.691406 20.621094 9.027344 21.28125 8.171875 21.28125 C 7.746094 21.28125 7.375 21.121094 7.109375 20.855469 C 6.816406 20.566406 6.65625 20.195312 6.683594 19.796875 L 6.691406 12.660156 C 6.691406 12.238281 6.851562 11.867188 7.117188 11.601562 C 7.382812 11.339844 7.785156 11.152344 8.183594 11.179688 C 8.585938 11.15625 8.957031 11.3125 9.25 11.605469 Z M 7.640625 20.273438 C 7.773438 20.40625 7.960938 20.488281 8.175781 20.488281 C 8.601562 20.488281 8.921875 20.171875 8.921875 19.75 L 8.929688 12.660156 C 8.929688 12.238281 8.582031 11.894531 8.183594 11.921875 C 7.96875 11.921875 7.785156 12 7.652344 12.132812 C 7.515625 12.265625 7.4375 12.449219 7.4375 12.660156 L 7.429688 19.746094 C 7.429688 19.957031 7.507812 20.144531 7.640625 20.273438 Z M 7.640625 20.273438 "/>
<path style=" stroke:none;fill-rule:nonzero;fill:rgb(0%,0%,0%);fill-opacity:1;" d="M 30.511719 14.75 C 30.617188 14.855469 30.699219 15.039062 30.699219 15.199219 L 30.695312 16.941406 C 30.695312 17.3125 30.429688 17.578125 30.054688 17.578125 L 13.425781 17.558594 L 13.429688 14.542969 L 30.085938 14.535156 C 30.246094 14.535156 30.378906 14.617188 30.511719 14.75 Z M 29.949219 16.785156 L 29.953125 15.304688 L 14.230469 15.285156 L 14.226562 16.765625 Z M 29.949219 16.785156 "/>
</g>
</svg>
