<?xml version="1.0" encoding="UTF-8"?>
<svg xmlns="http://www.w3.org/2000/svg" xmlns:xlink="http://www.w3.org/1999/xlink" width="32px" height="32px" viewBox="0 0 32 32" version="1.1">
<g id="surface1">
<path style=" stroke:none;fill-rule:nonzero;fill:rgb(100%,88.235294%,0%);fill-opacity:1;" d="M 10.703125 12.84375 L 29.164062 31.410156 C 29.324219 31.570312 29.539062 31.570312 29.699219 31.410156 L 31.464844 29.644531 C 31.625 29.484375 31.625 29.269531 31.464844 29.109375 L 12.949219 10.542969 Z M 10.703125 12.84375 "/>
<path style=" stroke:none;fill-rule:nonzero;fill:rgb(99.215686%,80%,0%);fill-opacity:1;" d="M 6.847656 14.339844 C 7.492188 14.984375 8.507812 14.984375 9.097656 14.339844 L 14.394531 9.042969 C 15.035156 8.402344 15.035156 7.382812 14.394531 6.796875 C 13.753906 6.152344 12.734375 6.152344 12.148438 6.796875 L 6.847656 12.09375 C 6.207031 12.683594 6.207031 13.699219 6.847656 14.339844 "/>
<path style=" stroke:none;fill-rule:nonzero;fill:rgb(100%,88.235294%,0%);fill-opacity:1;" d="M 3.800781 12.84375 C 4.441406 13.484375 5.457031 13.484375 6.046875 12.84375 L 13.269531 5.617188 C 13.914062 4.976562 13.914062 3.960938 13.269531 3.371094 C 12.628906 2.730469 11.613281 2.730469 11.023438 3.371094 L 3.800781 10.542969 C 3.15625 11.183594 3.15625 12.199219 3.800781 12.84375 "/>
<path style=" stroke:none;fill-rule:nonzero;fill:rgb(100%,88.235294%,0%);fill-opacity:1;" d="M 1.175781 6.367188 C 1.820312 7.011719 2.835938 7.011719 3.425781 6.367188 L 6.476562 3.316406 C 7.117188 2.675781 7.117188 1.660156 6.476562 1.070312 C 5.832031 0.480469 4.816406 0.480469 4.175781 1.070312 L 1.175781 4.121094 C 0.535156 4.761719 0.535156 5.777344 1.175781 6.367188 "/>
<path style=" stroke:none;fill-rule:nonzero;fill:rgb(100%,100%,100%);fill-opacity:1;" d="M 30.875 29.753906 L 12.414062 11.183594 L 13.003906 10.59375 L 31.464844 29.164062 C 31.625 29.324219 31.625 29.539062 31.464844 29.699219 L 30.875 30.289062 C 30.984375 30.128906 30.984375 29.859375 30.875 29.753906 "/>
<path style=" stroke:none;fill-rule:nonzero;fill:rgb(100%,65.882353%,0%);fill-opacity:1;" d="M 11.34375 12.253906 L 29.804688 30.824219 C 29.964844 30.984375 30.179688 30.984375 30.339844 30.824219 L 29.753906 31.410156 C 29.59375 31.570312 29.378906 31.570312 29.21875 31.410156 L 10.703125 12.84375 Z M 11.34375 12.253906 "/>
<path style=" stroke:none;fill-rule:nonzero;fill:rgb(100%,65.882353%,0%);fill-opacity:1;" d="M 2.035156 3.265625 C 1.390625 3.90625 1.390625 4.921875 2.035156 5.511719 C 2.621094 6.101562 3.585938 6.152344 4.226562 5.566406 L 3.53125 6.261719 C 2.890625 6.902344 1.871094 6.902344 1.285156 6.261719 C 0.695312 5.617188 0.640625 4.601562 1.285156 4.011719 Z M 2.035156 3.265625 "/>
<path style=" stroke:none;fill-rule:nonzero;fill:rgb(100%,100%,100%);fill-opacity:1;" d="M 4.28125 1.015625 C 4.921875 0.375 5.941406 0.375 6.527344 1.015625 C 7.171875 1.660156 7.171875 2.675781 6.527344 3.265625 L 5.671875 4.175781 C 6.207031 3.53125 6.207031 2.570312 5.617188 1.980469 C 4.976562 1.335938 3.960938 1.335938 3.371094 1.980469 Z M 4.28125 1.015625 "/>
<path style=" stroke:none;fill-rule:nonzero;fill:rgb(99.215686%,80%,0%);fill-opacity:1;" d="M 3.105469 8.9375 C 3.746094 9.578125 4.761719 9.578125 5.351562 8.9375 L 8.988281 5.351562 C 9.632812 4.710938 9.632812 3.691406 8.988281 3.105469 C 8.347656 2.460938 7.332031 2.460938 6.742188 3.105469 L 3.105469 6.742188 C 2.515625 7.332031 2.515625 8.347656 3.105469 8.9375 "/>
<path style=" stroke:none;fill-rule:nonzero;fill:rgb(100%,65.882353%,0%);fill-opacity:1;" d="M 4.441406 9.6875 C 3.800781 10.328125 2.78125 10.328125 2.195312 9.6875 C 1.550781 9.042969 1.550781 8.027344 2.195312 7.4375 L 3.050781 6.582031 C 2.40625 7.222656 2.40625 8.242188 3.050781 8.828125 C 3.691406 9.472656 4.710938 9.472656 5.296875 8.828125 Z M 4.441406 9.6875 "/>
<path style=" stroke:none;fill-rule:nonzero;fill:rgb(100%,100%,100%);fill-opacity:1;" d="M 7.492188 2.140625 C 8.132812 1.5 9.152344 1.5 9.738281 2.140625 C 10.382812 2.78125 10.382812 3.800781 9.738281 4.386719 L 8.882812 5.242188 C 9.523438 4.601562 9.523438 3.585938 8.882812 2.996094 C 8.242188 2.355469 7.222656 2.355469 6.636719 2.996094 Z M 7.492188 2.140625 "/>
<path style=" stroke:none;fill-rule:nonzero;fill:rgb(100%,65.882353%,0%);fill-opacity:1;" d="M 5.992188 12.894531 C 5.351562 13.539062 4.335938 13.539062 3.746094 12.894531 C 3.105469 12.308594 3.105469 11.238281 3.746094 10.648438 L 4.601562 9.792969 C 3.960938 10.433594 3.960938 11.453125 4.601562 12.039062 C 5.242188 12.683594 6.261719 12.683594 6.847656 12.039062 Z M 5.992188 12.894531 "/>
<path style=" stroke:none;fill-rule:nonzero;fill:rgb(100%,100%,100%);fill-opacity:1;" d="M 11.078125 3.316406 C 11.71875 2.675781 12.734375 2.675781 13.324219 3.316406 C 13.964844 3.960938 13.964844 4.976562 13.324219 5.566406 L 12.523438 6.421875 C 13.164062 5.777344 13.164062 4.761719 12.523438 4.175781 C 11.878906 3.53125 10.863281 3.53125 10.273438 4.175781 Z M 11.078125 3.316406 "/>
<path style=" stroke:none;fill-rule:nonzero;fill:rgb(100%,65.882353%,0%);fill-opacity:1;" d="M 9.203125 14.339844 C 8.5625 14.984375 7.546875 14.984375 6.957031 14.339844 C 6.3125 13.699219 6.3125 12.683594 6.957031 12.09375 L 7.8125 11.238281 C 7.171875 11.878906 7.171875 12.894531 7.8125 13.484375 C 8.453125 14.128906 9.472656 14.128906 10.058594 13.484375 Z M 9.203125 14.339844 "/>
<path style=" stroke:none;fill-rule:nonzero;fill:rgb(100%,100%,100%);fill-opacity:1;" d="M 12.148438 6.527344 C 12.789062 5.886719 13.804688 5.886719 14.394531 6.527344 C 15.035156 7.171875 15.035156 8.1875 14.394531 8.777344 L 13.59375 9.632812 C 14.234375 8.988281 14.234375 7.972656 13.59375 7.382812 C 12.949219 6.742188 11.933594 6.742188 11.34375 7.382812 Z M 12.148438 6.527344 "/>
<path style=" stroke:none;fill-rule:nonzero;fill:rgb(100%,88.235294%,0%);fill-opacity:1;" d="M 19.210938 15.089844 L 2.941406 31.359375 C 2.78125 31.519531 2.570312 31.519531 2.40625 31.359375 L 0.640625 29.59375 C 0.480469 29.429688 0.480469 29.21875 0.640625 29.058594 L 16.964844 12.84375 Z M 19.210938 15.089844 "/>
<path style=" stroke:none;fill-rule:nonzero;fill:rgb(100%,88.235294%,0%);fill-opacity:1;" d="M 16.589844 10.167969 C 17.230469 9.523438 18.246094 9.523438 18.835938 10.167969 L 21.886719 13.21875 C 22.527344 13.859375 22.527344 14.875 21.886719 15.464844 C 21.242188 16.105469 20.226562 16.105469 19.640625 15.464844 L 16.589844 12.46875 C 15.945312 11.824219 15.945312 10.808594 16.589844 10.167969 "/>
<path style=" stroke:none;fill-rule:nonzero;fill:rgb(99.215686%,80%,0%);fill-opacity:1;" d="M 25.257812 14.339844 C 24.617188 14.984375 23.597656 14.984375 23.011719 14.339844 L 17.710938 9.042969 C 17.070312 8.402344 17.070312 7.382812 17.710938 6.796875 C 18.355469 6.152344 19.371094 6.152344 19.960938 6.796875 L 25.257812 12.09375 C 25.898438 12.683594 25.898438 13.699219 25.257812 14.339844 "/>
<path style=" stroke:none;fill-rule:nonzero;fill:rgb(100%,88.235294%,0%);fill-opacity:1;" d="M 28.308594 12.84375 C 27.664062 13.484375 26.648438 13.484375 26.058594 12.84375 L 18.835938 5.617188 C 18.195312 4.976562 18.195312 3.960938 18.835938 3.371094 C 19.476562 2.730469 20.496094 2.730469 21.082031 3.371094 L 28.253906 10.542969 C 28.949219 11.183594 28.949219 12.199219 28.308594 12.84375 "/>
<path style=" stroke:none;fill-rule:nonzero;fill:rgb(99.215686%,80%,0%);fill-opacity:1;" d="M 29.804688 9.792969 C 29.164062 10.433594 28.148438 10.433594 27.558594 9.792969 L 22.261719 4.496094 C 21.617188 3.851562 21.617188 2.835938 22.261719 2.246094 C 22.902344 1.605469 23.917969 1.605469 24.507812 2.246094 L 29.804688 7.546875 C 30.449219 8.132812 30.449219 9.152344 29.804688 9.792969 "/>
<path style=" stroke:none;fill-rule:nonzero;fill:rgb(100%,88.235294%,0%);fill-opacity:1;" d="M 30.929688 6.367188 C 30.289062 7.011719 29.269531 7.011719 28.683594 6.367188 L 25.632812 3.316406 C 24.988281 2.675781 24.988281 1.660156 25.632812 1.070312 C 26.273438 0.429688 27.289062 0.429688 27.878906 1.070312 L 30.929688 4.121094 C 31.570312 4.761719 31.570312 5.777344 30.929688 6.367188 "/>
<path style=" stroke:none;fill-rule:nonzero;fill:rgb(100%,100%,100%);fill-opacity:1;" d="M 1.230469 29.753906 L 17.5 13.484375 L 16.910156 12.84375 L 0.640625 29.109375 C 0.480469 29.269531 0.480469 29.484375 0.640625 29.644531 L 1.230469 30.234375 C 1.125 30.128906 1.125 29.859375 1.230469 29.753906 "/>
<path style=" stroke:none;fill-rule:nonzero;fill:rgb(100%,65.882353%,0%);fill-opacity:1;" d="M 18.621094 14.5 L 2.300781 30.824219 C 2.140625 30.984375 1.925781 30.984375 1.765625 30.824219 L 2.355469 31.410156 C 2.515625 31.570312 2.730469 31.570312 2.890625 31.410156 L 19.15625 15.144531 Z M 18.621094 14.5 "/>
<path style=" stroke:none;fill-rule:nonzero;fill:rgb(100%,65.882353%,0%);fill-opacity:1;" d="M 30.074219 3.265625 C 30.714844 3.90625 30.714844 4.921875 30.074219 5.511719 C 29.484375 6.101562 28.523438 6.152344 27.878906 5.566406 L 28.574219 6.261719 C 29.21875 6.902344 30.234375 6.902344 30.824219 6.261719 C 31.410156 5.617188 31.464844 4.601562 30.824219 4.011719 Z M 30.074219 3.265625 "/>
<path style=" stroke:none;fill-rule:nonzero;fill:rgb(100%,100%,100%);fill-opacity:1;" d="M 27.824219 1.015625 C 27.183594 0.375 26.167969 0.375 25.578125 1.015625 C 24.9375 1.660156 24.9375 2.675781 25.578125 3.265625 L 26.488281 4.175781 C 25.953125 3.53125 25.953125 2.570312 26.542969 1.980469 C 27.183594 1.335938 28.199219 1.335938 28.789062 1.980469 Z M 27.824219 1.015625 "/>
<path style=" stroke:none;fill-rule:nonzero;fill:rgb(99.215686%,80%,0%);fill-opacity:1;" d="M 29.003906 8.9375 C 28.359375 9.578125 27.34375 9.578125 26.757812 8.9375 L 23.117188 5.351562 C 22.476562 4.710938 22.476562 3.691406 23.117188 3.105469 C 23.757812 2.460938 24.777344 2.460938 25.363281 3.105469 L 29.003906 6.742188 C 29.59375 7.332031 29.59375 8.347656 29.003906 8.9375 "/>
<path style=" stroke:none;fill-rule:nonzero;fill:rgb(100%,65.882353%,0%);fill-opacity:1;" d="M 27.664062 9.6875 C 28.308594 10.328125 29.324219 10.328125 29.914062 9.6875 C 30.554688 9.042969 30.554688 8.027344 29.914062 7.4375 L 29.058594 6.582031 C 29.699219 7.222656 29.699219 8.242188 29.058594 8.828125 C 28.414062 9.472656 27.398438 9.472656 26.808594 8.828125 Z M 27.664062 9.6875 "/>
<path style=" stroke:none;fill-rule:nonzero;fill:rgb(100%,100%,100%);fill-opacity:1;" d="M 24.617188 2.140625 C 23.972656 1.5 22.957031 1.5 22.367188 2.140625 C 21.726562 2.78125 21.726562 3.800781 22.367188 4.386719 L 23.222656 5.242188 C 22.582031 4.601562 22.582031 3.585938 23.222656 2.996094 C 23.867188 2.355469 24.882812 2.355469 25.472656 2.996094 Z M 24.617188 2.140625 "/>
<path style=" stroke:none;fill-rule:nonzero;fill:rgb(100%,65.882353%,0%);fill-opacity:1;" d="M 26.113281 12.894531 C 26.757812 13.539062 27.773438 13.539062 28.359375 12.894531 C 29.003906 12.253906 29.003906 11.238281 28.359375 10.648438 L 27.503906 9.792969 C 28.148438 10.433594 28.148438 11.453125 27.503906 12.039062 C 26.863281 12.683594 25.847656 12.683594 25.257812 12.039062 Z M 26.113281 12.894531 "/>
<path style=" stroke:none;fill-rule:nonzero;fill:rgb(100%,100%,100%);fill-opacity:1;" d="M 21.03125 3.316406 C 20.386719 2.675781 19.371094 2.675781 18.78125 3.316406 C 18.140625 3.960938 18.140625 4.976562 18.78125 5.566406 L 19.640625 6.421875 C 18.996094 5.777344 18.996094 4.761719 19.640625 4.175781 C 20.28125 3.53125 21.296875 3.53125 21.886719 4.175781 Z M 21.03125 3.316406 "/>
<path style=" stroke:none;fill-rule:nonzero;fill:rgb(100%,65.882353%,0%);fill-opacity:1;" d="M 22.902344 14.339844 C 23.546875 14.984375 24.5625 14.984375 25.152344 14.339844 C 25.792969 13.699219 25.792969 12.683594 25.152344 12.09375 L 24.292969 11.238281 C 24.9375 11.878906 24.9375 12.894531 24.292969 13.484375 C 23.652344 14.128906 22.636719 14.128906 22.046875 13.484375 Z M 22.902344 14.339844 "/>
<path style=" stroke:none;fill-rule:nonzero;fill:rgb(100%,100%,100%);fill-opacity:1;" d="M 19.960938 6.527344 C 19.316406 5.886719 18.300781 5.886719 17.710938 6.527344 C 17.070312 7.171875 17.070312 8.1875 17.710938 8.777344 L 18.570312 9.632812 C 17.925781 8.988281 17.925781 7.972656 18.570312 7.382812 C 19.210938 6.742188 20.226562 6.742188 20.816406 7.382812 Z M 19.960938 6.527344 "/>
<path style=" stroke:none;fill-rule:nonzero;fill:rgb(100%,65.882353%,0%);fill-opacity:1;" d="M 19.53125 15.570312 C 20.175781 16.214844 21.191406 16.214844 21.78125 15.570312 C 22.421875 14.929688 22.421875 13.914062 21.78125 13.324219 L 20.921875 12.46875 C 21.566406 13.109375 21.566406 14.128906 20.921875 14.714844 C 20.28125 15.359375 19.265625 15.359375 18.675781 14.714844 Z M 19.53125 15.570312 "/>
<path style=" stroke:none;fill-rule:nonzero;fill:rgb(100%,100%,100%);fill-opacity:1;" d="M 18.730469 10.113281 C 18.085938 9.472656 17.070312 9.472656 16.480469 10.113281 C 15.839844 10.757812 15.839844 11.773438 16.480469 12.359375 L 17.335938 13.21875 C 16.695312 12.574219 16.695312 11.558594 17.335938 10.96875 C 17.980469 10.328125 18.996094 10.328125 19.585938 10.96875 Z M 18.730469 10.113281 "/>
<path style=" stroke:none;fill-rule:nonzero;fill:rgb(0%,0%,0%);fill-opacity:1;" d="M 29.804688 7.382812 C 29.21875 7.382812 28.683594 7.171875 28.308594 6.742188 L 25.257812 3.746094 C 24.828125 3.316406 24.617188 2.78125 24.617188 2.246094 C 24.617188 1.660156 24.828125 1.125 25.257812 0.75 C 25.6875 0.375 26.222656 0.105469 26.757812 0.105469 C 27.34375 0.105469 27.878906 0.320312 28.253906 0.75 L 31.359375 3.746094 C 32.214844 4.601562 32.214844 5.941406 31.359375 6.796875 C 30.929688 7.171875 30.394531 7.382812 29.804688 7.382812 Z M 26.808594 1.175781 C 26.542969 1.175781 26.273438 1.285156 26.058594 1.5 C 25.847656 1.710938 25.738281 1.980469 25.738281 2.246094 C 25.738281 2.515625 25.847656 2.78125 26.058594 2.996094 L 29.109375 6.046875 C 29.539062 6.476562 30.234375 6.476562 30.609375 6.046875 C 31.035156 5.617188 31.035156 4.976562 30.609375 4.546875 L 27.558594 1.5 C 27.34375 1.285156 27.078125 1.175781 26.808594 1.175781 Z M 26.808594 1.175781 "/>
<path style=" stroke:none;fill-rule:nonzero;fill:rgb(0%,0%,0%);fill-opacity:1;" d="M 28.683594 10.808594 C 28.09375 10.808594 27.558594 10.59375 27.183594 10.167969 L 21.886719 4.871094 C 21.03125 4.011719 21.03125 2.675781 21.886719 1.820312 C 22.316406 1.390625 22.847656 1.175781 23.382812 1.175781 C 23.972656 1.175781 24.507812 1.390625 24.882812 1.820312 L 30.179688 7.117188 C 31.035156 7.972656 31.035156 9.3125 30.179688 10.167969 C 29.804688 10.59375 29.269531 10.808594 28.683594 10.808594 Z M 23.382812 2.300781 C 23.117188 2.300781 22.847656 2.40625 22.636719 2.621094 C 22.207031 3.050781 22.207031 3.691406 22.636719 4.121094 L 27.933594 9.417969 C 28.359375 9.847656 29.058594 9.847656 29.429688 9.417969 C 29.859375 8.988281 29.859375 8.347656 29.429688 7.917969 L 24.132812 2.621094 C 23.917969 2.40625 23.652344 2.300781 23.382812 2.300781 Z M 23.382812 2.300781 "/>
<path style=" stroke:none;fill-rule:nonzero;fill:rgb(0%,0%,0%);fill-opacity:1;" d="M 24.132812 15.359375 C 23.546875 15.359375 23.011719 15.144531 22.636719 14.714844 L 17.335938 9.417969 C 16.480469 8.5625 16.480469 7.222656 17.335938 6.367188 C 17.765625 5.941406 18.300781 5.726562 18.835938 5.726562 C 19.425781 5.726562 19.960938 5.941406 20.335938 6.367188 L 25.632812 11.664062 C 26.488281 12.523438 26.488281 13.859375 25.632812 14.714844 C 25.257812 15.089844 24.722656 15.359375 24.132812 15.359375 Z M 18.835938 6.847656 C 18.570312 6.847656 18.300781 6.957031 18.085938 7.171875 C 17.660156 7.597656 17.660156 8.242188 18.085938 8.667969 L 23.382812 13.964844 C 23.8125 14.394531 24.507812 14.394531 24.882812 13.964844 C 25.3125 13.539062 25.3125 12.894531 24.882812 12.46875 L 19.585938 7.171875 C 19.425781 6.957031 19.15625 6.847656 18.835938 6.847656 Z M 18.835938 6.847656 "/>
<path style=" stroke:none;fill-rule:nonzero;fill:rgb(0%,0%,0%);fill-opacity:1;" d="M 20.761719 16.480469 C 20.175781 16.480469 19.640625 16.269531 19.265625 15.839844 L 16.214844 12.84375 C 15.359375 11.988281 15.359375 10.648438 16.214844 9.792969 C 16.640625 9.363281 17.175781 9.152344 17.710938 9.152344 C 18.300781 9.152344 18.835938 9.363281 19.210938 9.792969 L 22.261719 12.84375 C 22.6875 13.269531 22.902344 13.804688 22.902344 14.339844 C 22.902344 14.875 22.6875 15.464844 22.261719 15.839844 C 21.832031 16.214844 21.296875 16.480469 20.761719 16.480469 Z M 17.710938 10.222656 C 17.445312 10.222656 17.175781 10.328125 16.964844 10.542969 C 16.535156 10.96875 16.535156 11.613281 16.964844 12.039062 L 20.011719 15.089844 C 20.441406 15.519531 21.136719 15.519531 21.511719 15.089844 C 21.726562 14.875 21.832031 14.609375 21.832031 14.339844 C 21.832031 14.074219 21.726562 13.804688 21.511719 13.59375 L 18.460938 10.542969 C 18.246094 10.328125 17.980469 10.222656 17.710938 10.222656 Z M 17.710938 10.222656 "/>
<path style=" stroke:none;fill-rule:nonzero;fill:rgb(0%,0%,0%);fill-opacity:1;" d="M 27.183594 13.804688 C 26.59375 13.804688 26.058594 13.59375 25.6875 13.164062 L 18.460938 5.992188 C 17.605469 5.136719 17.605469 3.800781 18.460938 2.941406 C 18.890625 2.515625 19.425781 2.300781 19.960938 2.300781 C 20.546875 2.300781 21.082031 2.515625 21.457031 2.941406 L 28.683594 10.167969 C 29.539062 11.023438 29.539062 12.359375 28.683594 13.21875 C 28.253906 13.59375 27.71875 13.804688 27.183594 13.804688 Z M 19.960938 3.425781 C 19.691406 3.425781 19.425781 3.53125 19.210938 3.746094 C 18.78125 4.175781 18.78125 4.816406 19.210938 5.242188 L 26.382812 12.414062 C 26.808594 12.84375 27.503906 12.84375 27.878906 12.414062 C 28.308594 11.988281 28.308594 11.34375 27.878906 10.917969 L 20.761719 3.746094 C 20.546875 3.53125 20.28125 3.425781 19.960938 3.425781 Z M 19.960938 3.425781 "/>
<path style=" stroke:none;fill-rule:nonzero;fill:rgb(0%,0%,0%);fill-opacity:1;" d="M 2.675781 32 C 2.460938 32 2.195312 31.894531 2.035156 31.730469 L 0.269531 29.964844 C 0.105469 29.804688 0 29.59375 0 29.378906 C 0 29.164062 0.105469 28.894531 0.269531 28.734375 L 16.910156 12.039062 L 19.960938 15.089844 L 3.316406 31.785156 C 3.15625 31.945312 2.941406 32 2.675781 32 Z M 1.175781 29.378906 L 2.675781 30.875 L 18.460938 15.089844 L 16.964844 13.59375 Z M 1.175781 29.378906 "/>
<path style=" stroke:none;fill-rule:nonzero;fill:rgb(0%,0%,0%);fill-opacity:1;" d="M 2.140625 7.382812 C 1.550781 7.382812 1.015625 7.171875 0.640625 6.742188 C -0.214844 5.886719 -0.214844 4.546875 0.640625 3.691406 L 3.691406 0.640625 C 4.121094 0.214844 4.65625 0 5.191406 0 C 5.777344 0 6.3125 0.214844 6.6875 0.640625 C 7.117188 1.070312 7.332031 1.605469 7.332031 2.140625 C 7.332031 2.730469 7.117188 3.265625 6.6875 3.640625 L 3.640625 6.6875 C 3.265625 7.171875 2.730469 7.382812 2.140625 7.382812 Z M 5.191406 1.175781 C 4.921875 1.175781 4.65625 1.285156 4.441406 1.5 L 1.390625 4.496094 C 0.964844 4.921875 0.964844 5.566406 1.390625 5.992188 C 1.820312 6.421875 2.515625 6.421875 2.890625 5.992188 L 5.941406 2.941406 C 6.152344 2.730469 6.261719 2.460938 6.261719 2.195312 C 6.261719 1.925781 6.152344 1.660156 5.941406 1.445312 C 5.726562 1.285156 5.457031 1.175781 5.191406 1.175781 Z M 5.191406 1.175781 "/>
<path style=" stroke:none;fill-rule:nonzero;fill:rgb(0%,0%,0%);fill-opacity:1;" d="M 3.265625 10.808594 C 2.675781 10.808594 2.140625 10.59375 1.765625 10.167969 C 0.910156 9.3125 0.910156 7.972656 1.765625 7.117188 L 7.0625 1.820312 C 7.492188 1.390625 8.027344 1.175781 8.5625 1.175781 C 9.152344 1.175781 9.6875 1.390625 10.058594 1.820312 C 10.917969 2.675781 10.917969 4.011719 10.058594 4.871094 L 4.761719 10.167969 C 4.386719 10.59375 3.851562 10.808594 3.265625 10.808594 Z M 8.5625 2.300781 C 8.292969 2.300781 8.027344 2.40625 7.8125 2.621094 L 2.515625 7.917969 C 2.085938 8.347656 2.085938 8.988281 2.515625 9.417969 C 2.941406 9.847656 3.640625 9.847656 4.011719 9.417969 L 9.3125 4.121094 C 9.738281 3.691406 9.738281 3.050781 9.3125 2.621094 C 9.152344 2.40625 8.882812 2.300781 8.5625 2.300781 Z M 8.5625 2.300781 "/>
<path style=" stroke:none;fill-rule:nonzero;fill:rgb(0%,0%,0%);fill-opacity:1;" d="M 7.8125 15.359375 C 7.222656 15.359375 6.6875 15.144531 6.3125 14.714844 C 5.457031 13.859375 5.457031 12.523438 6.3125 11.664062 L 11.613281 6.367188 C 12.039062 5.941406 12.574219 5.726562 13.109375 5.726562 C 13.644531 5.726562 14.234375 5.941406 14.609375 6.367188 C 15.464844 7.222656 15.464844 8.5625 14.609375 9.417969 L 9.3125 14.714844 C 8.9375 15.089844 8.402344 15.359375 7.8125 15.359375 Z M 13.109375 6.847656 C 12.84375 6.847656 12.574219 6.957031 12.359375 7.171875 L 7.0625 12.46875 C 6.636719 12.894531 6.636719 13.539062 7.0625 13.964844 C 7.492188 14.394531 8.1875 14.394531 8.5625 13.964844 L 13.859375 8.667969 C 14.289062 8.242188 14.289062 7.597656 13.859375 7.171875 C 13.644531 6.957031 13.378906 6.847656 13.109375 6.847656 Z M 13.109375 6.847656 "/>
<path style=" stroke:none;fill-rule:nonzero;fill:rgb(0%,0%,0%);fill-opacity:1;" d="M 4.761719 13.804688 C 4.175781 13.804688 3.640625 13.59375 3.265625 13.164062 C 2.40625 12.308594 2.40625 10.96875 3.265625 10.113281 L 10.488281 2.996094 C 10.917969 2.570312 11.453125 2.355469 11.988281 2.355469 C 12.523438 2.355469 13.109375 2.570312 13.484375 2.996094 C 14.339844 3.851562 14.339844 5.191406 13.484375 6.046875 L 6.3125 13.21875 C 5.886719 13.59375 5.351562 13.804688 4.761719 13.804688 Z M 11.988281 3.425781 C 11.71875 3.425781 11.453125 3.53125 11.238281 3.746094 L 4.011719 10.917969 C 3.585938 11.34375 3.585938 11.988281 4.011719 12.414062 C 4.441406 12.84375 5.136719 12.84375 5.511719 12.414062 L 12.734375 5.242188 C 13.164062 4.816406 13.164062 4.175781 12.734375 3.746094 C 12.523438 3.53125 12.253906 3.425781 11.988281 3.425781 Z M 11.988281 3.425781 "/>
<path style=" stroke:none;fill-rule:nonzero;fill:rgb(0%,0%,0%);fill-opacity:1;" d="M 13.699219 16.800781 L 9.847656 12.949219 L 12.894531 9.898438 L 16.75 13.753906 Z M 11.34375 12.949219 L 13.699219 15.304688 L 15.199219 13.804688 L 12.84375 11.398438 Z M 11.34375 12.949219 "/>
<path style=" stroke:none;fill-rule:nonzero;fill:rgb(0%,0%,0%);fill-opacity:1;" d="M 29.269531 32 C 29.058594 32 28.789062 31.894531 28.628906 31.730469 L 15.199219 18.300781 L 18.246094 15.25 L 31.679688 28.683594 C 31.839844 28.84375 31.945312 29.058594 31.945312 29.324219 C 31.945312 29.539062 31.839844 29.804688 31.679688 29.964844 L 29.914062 31.734375 C 29.753906 31.945312 29.539062 32 29.269531 32 Z M 16.75 18.300781 L 29.324219 30.875 L 30.824219 29.378906 L 18.246094 16.800781 Z M 16.75 18.300781 "/>
</g>
</svg>
